<?xml version="1.0" encoding="UTF-8"?>
<svg xmlns="http://www.w3.org/2000/svg" xmlns:xlink="http://www.w3.org/1999/xlink" viewBox="0 0 500 198.42">
  <defs>
    <style>
      .cls-1 {
        fill: #eeeefa;
      }

      .cls-2 {
        stroke: url(#linear-gradient-11);
      }

      .cls-2, .cls-3, .cls-4, .Landas_4, .cls-5 {
        fill: url(#linear-gradient);
        stroke-linecap: round;
        stroke-linejoin: round;
        stroke-width: .75px;
      }

      .cls-6 {
        fill: url(#linear-gradient-15);
      }

      .cls-7 {
        fill: url(#linear-gradient-18);
      }

      .cls-8 {
        fill: url(#linear-gradient-6);
      }

      .cls-9 {
        isolation: isolate;
      }

      .cls-10 {
        letter-spacing: 0em;
      }

      .cls-11 {
        fill: url(#linear-gradient-10);
      }

      .cls-12 {
        fill: #c93d17;
      }

      .cls-13 {
        fill: url(#linear-gradient-16);
      }

      .cls-3 {
        stroke: url(#linear-gradient-14);
      }

      .cls-4 {
        stroke: url(#linear-gradient-12);
      }

      .Landas_4 {
        stroke: url(#linear-gradient-2);
      }

      .cls-14 {
        fill: url(#linear-gradient-5);
      }

      .cls-15 {
        fill: #fc7808;
        font-family: Montserrat-Italic, 'Montserrat Italic';
        font-size: 22.39px;
        font-style: italic;
      }

      .cls-16 {
        fill: none;
      }

      .cls-17 {
        fill: url(#linear-gradient-7);
      }

      .cls-18 {
        fill: url(#linear-gradient-9);
      }

      .cls-19 {
        fill: url(#linear-gradient-13);
        mix-blend-mode: screen;
      }

      .cls-20 {
        fill: url(#linear-gradient-3);
      }

      .cls-21 {
        fill: url(#linear-gradient-19);
      }

      .cls-22 {
        fill: url(#linear-gradient-4);
      }

      .cls-5 {
        stroke: url(#linear-gradient-17);
      }

      .cls-23 {
        fill: url(#linear-gradient-8);
      }
    </style>
    <linearGradient id="linear-gradient" x1="308.44" y1="74.74" x2="329.28" y2="110.82" gradientUnits="userSpaceOnUse">
      <stop offset="0" stop-color="#eeeefa"/>
      <stop offset=".1" stop-color="#c3c3ce"/>
      <stop offset=".18" stop-color="#a3a3ad"/>
      <stop offset=".26" stop-color="#8f8f9a"/>
      <stop offset=".31" stop-color="#898993"/>
      <stop offset=".32" stop-color="#9999a4"/>
      <stop offset=".34" stop-color="#b3b3be"/>
      <stop offset=".36" stop-color="#c9c9d4"/>
      <stop offset=".38" stop-color="#d9d9e5"/>
      <stop offset=".42" stop-color="#e5e5f1"/>
      <stop offset=".46" stop-color="#ececf8"/>
      <stop offset=".59" stop-color="#eeeefa"/>
      <stop offset=".6" stop-color="#eaeaf6"/>
      <stop offset=".7" stop-color="#d0d0da"/>
      <stop offset=".8" stop-color="#bdbdc6"/>
      <stop offset=".9" stop-color="#b1b1ba"/>
      <stop offset="1" stop-color="#aeaeb6"/>
    </linearGradient>
    <linearGradient id="linear-gradient-2" x1="294.8" y1="129.16" x2="339.87" y2="51.11" xlink:href="#linear-gradient"/>
    <linearGradient id="linear-gradient-3" x1="399.01" y1="-2387.05" x2="400.01" y2="-2387.05" gradientTransform="translate(193346.04 -159068.18) rotate(60) scale(103.36 -103.36)" gradientUnits="userSpaceOnUse">
      <stop offset="0" stop-color="#898993"/>
      <stop offset=".03" stop-color="#9696a0"/>
      <stop offset=".13" stop-color="#c5c5d0"/>
      <stop offset=".2" stop-color="#e3e3ee"/>
      <stop offset=".25" stop-color="#eeeefa"/>
      <stop offset=".36" stop-color="#c3c3ce"/>
      <stop offset=".46" stop-color="#a3a3ae"/>
      <stop offset=".54" stop-color="#90909a"/>
      <stop offset=".6" stop-color="#898993"/>
      <stop offset=".61" stop-color="#9999a4"/>
      <stop offset=".63" stop-color="#b3b3be"/>
      <stop offset=".64" stop-color="#c9c9d4"/>
      <stop offset=".67" stop-color="#d9d9e5"/>
      <stop offset=".69" stop-color="#e5e5f1"/>
      <stop offset=".73" stop-color="#ececf8"/>
      <stop offset=".84" stop-color="#eeeefa"/>
      <stop offset=".84" stop-color="#ececf8"/>
      <stop offset=".95" stop-color="#bfbfc8"/>
      <stop offset="1" stop-color="#aeaeb6"/>
    </linearGradient>
    <linearGradient id="linear-gradient-4" x1="399.01" y1="-2387.62" x2="400.01" y2="-2387.62" xlink:href="#linear-gradient-3"/>
    <linearGradient id="linear-gradient-5" x1="399.01" y1="-2387.66" x2="400.01" y2="-2387.66" xlink:href="#linear-gradient-3"/>
    <linearGradient id="linear-gradient-6" x1="399" y1="-2387.66" x2="400" y2="-2387.66" gradientTransform="translate(-375671.83 -140473.44) rotate(-60) scale(165.78 -165.78)" gradientUnits="userSpaceOnUse">
      <stop offset="0" stop-color="#eeeefa"/>
      <stop offset=".1" stop-color="#c3c3ce"/>
      <stop offset=".18" stop-color="#a3a3ae"/>
      <stop offset=".26" stop-color="#90909a"/>
      <stop offset=".31" stop-color="#898993"/>
      <stop offset=".32" stop-color="#9999a4"/>
      <stop offset=".34" stop-color="#b3b3be"/>
      <stop offset=".36" stop-color="#c9c9d4"/>
      <stop offset=".38" stop-color="#d9d9e5"/>
      <stop offset=".42" stop-color="#e5e5f1"/>
      <stop offset=".46" stop-color="#ececf8"/>
      <stop offset=".59" stop-color="#eeeefa"/>
      <stop offset=".6" stop-color="#eaeaf6"/>
      <stop offset=".7" stop-color="#d0d0da"/>
      <stop offset=".8" stop-color="#bdbdc6"/>
      <stop offset=".9" stop-color="#b1b1ba"/>
      <stop offset="1" stop-color="#aeaeb6"/>
    </linearGradient>
    <linearGradient id="linear-gradient-7" x1="399.01" y1="-2387.62" x2="400.01" y2="-2387.62" xlink:href="#linear-gradient-3"/>
    <linearGradient id="linear-gradient-8" x1="399" y1="-2387.63" x2="400" y2="-2387.63" xlink:href="#linear-gradient-6"/>
    <linearGradient id="linear-gradient-9" x1="399" y1="-2387.63" x2="400" y2="-2387.63" gradientTransform="translate(152542.67 -125444.9) rotate(60) scale(81.52 -81.52)" gradientUnits="userSpaceOnUse">
      <stop offset="0" stop-color="#e5591f"/>
      <stop offset="0" stop-color="#e5591f"/>
      <stop offset=".06" stop-color="#e2571e"/>
      <stop offset=".1" stop-color="#d9531e"/>
      <stop offset=".13" stop-color="#c94d1c"/>
      <stop offset=".16" stop-color="#b4441b"/>
      <stop offset=".18" stop-color="#9a3919"/>
      <stop offset=".41" stop-color="#f59921"/>
      <stop offset=".61" stop-color="#e5781d"/>
      <stop offset="1" stop-color="#c93d17"/>
    </linearGradient>
    <linearGradient id="linear-gradient-10" x1="160.59" y1="65.42" x2="258.23" y2="125.88" gradientUnits="userSpaceOnUse">
      <stop offset="0" stop-color="#e5591f"/>
      <stop offset=".06" stop-color="#e2571e"/>
      <stop offset=".1" stop-color="#d9531e"/>
      <stop offset=".13" stop-color="#c94d1c"/>
      <stop offset=".16" stop-color="#b4441b"/>
      <stop offset=".18" stop-color="#9a3919"/>
      <stop offset=".41" stop-color="#f59921"/>
      <stop offset=".55" stop-color="#e9811e"/>
      <stop offset="1" stop-color="#c93d17"/>
    </linearGradient>
    <linearGradient id="linear-gradient-11" x1="294.8" y1="129.16" x2="339.87" y2="51.11" xlink:href="#linear-gradient"/>
    <linearGradient id="linear-gradient-12" x1="294.8" y1="129.16" x2="339.87" y2="51.11" xlink:href="#linear-gradient"/>
    <linearGradient id="linear-gradient-13" x1="199.02" y1="57.33" x2="239.12" y2="89.83" gradientUnits="userSpaceOnUse">
      <stop offset="0" stop-color="#aeaeb6"/>
      <stop offset=".12" stop-color="#93939a"/>
      <stop offset=".43" stop-color="#545458"/>
      <stop offset=".69" stop-color="#262628"/>
      <stop offset=".89" stop-color="#0a0a0b"/>
      <stop offset="1" stop-color="#000"/>
    </linearGradient>
    <linearGradient id="linear-gradient-14" x1="294.8" y1="129.16" x2="339.87" y2="51.11" xlink:href="#linear-gradient"/>
    <linearGradient id="linear-gradient-15" x1="160.29" y1="77.33" x2="238.37" y2="125.67" xlink:href="#linear-gradient-10"/>
    <linearGradient id="linear-gradient-16" x1="147.74" y1="106.45" x2="167.6" y2="118.76" xlink:href="#linear-gradient-10"/>
    <linearGradient id="linear-gradient-17" x1="294.8" y1="129.16" x2="339.87" y2="51.11" xlink:href="#linear-gradient"/>
    <linearGradient id="linear-gradient-18" x1="304.16" y1="125.16" x2="332.25" y2="173.81" gradientUnits="userSpaceOnUse">
      <stop offset="0" stop-color="#aeaeb6"/>
      <stop offset=".08" stop-color="#c7c7d1"/>
      <stop offset=".19" stop-color="#e3e3ee"/>
      <stop offset=".25" stop-color="#eeeefa"/>
      <stop offset=".28" stop-color="#e6e6f1"/>
      <stop offset=".52" stop-color="#aeaeb6"/>
      <stop offset=".67" stop-color="#cdcdd7"/>
      <stop offset=".84" stop-color="#eeeefa"/>
      <stop offset=".85" stop-color="#eaeaf6"/>
      <stop offset=".95" stop-color="#bebec7"/>
      <stop offset="1" stop-color="#aeaeb6"/>
    </linearGradient>
    <linearGradient id="linear-gradient-19" x1="145.76" y1="131.59" x2="165.3" y2="165.43" gradientUnits="userSpaceOnUse">
      <stop offset="0" stop-color="#e5591f"/>
      <stop offset=".09" stop-color="#ea701f"/>
      <stop offset=".23" stop-color="#f28d20"/>
      <stop offset=".3" stop-color="#f59921"/>
      <stop offset=".47" stop-color="#e9811e"/>
      <stop offset="1" stop-color="#c93d17"/>
    </linearGradient>
  </defs>
  <g class="cls-9">
    <g id="BACKGROUND">
      <rect class="cls-16" width="500" height="198.42"/>
    </g>
    <g id="OBJECTS">
      <g>
        <g>
          <polygon class="cls-20" points="294.16 31.25 298.2 21.9 284.69 14.1 298.2 21.9 294.16 31.25"/>
          <path class="cls-22" d="M179.9,80.9c.14-.24,.34-.45,.58-.61,.65-.44,1.31-.88,1.98-1.32,5.2-32.59,33.5-57.58,67.53-57.58,29.18,0,54.14,18.37,63.94,44.16l1.35,.19c1.05,.14,2.11,.27,3.16,.4-.54-1.56-1.12-3.1-1.77-4.61l-.28-.67,.58-.43,7.49-5.57-6.98-12.08-8.59,3.71-.67,.29-.44-.58c-4.05-5.36-8.83-10.14-14.19-14.19l-.58-.44,.29-.67,3.71-8.59-12.08-6.98-5.57,7.49-.43,.58-.67-.28c-6.14-2.61-12.66-4.34-19.4-5.17l-.72-.09-.08-.72-1.08-9.31h-13.95l-1.08,9.31-.08,.72-.72,.09c-6.73,.82-13.26,2.56-19.39,5.17l-.67,.28-.43-.58-5.57-7.49-12.08,6.98,3.71,8.59,.29,.67-.58,.44c-5.36,4.05-10.14,8.83-14.19,14.19l-.44,.58-.67-.29-8.59-3.71-6.98,12.08,7.49,5.57,.58,.43-.28,.67c-2.59,6.11-4.32,12.6-5.15,19.29,.1,0,.19,0,.29,.01,.48,.02,.96,.05,1.44,.07Z"/>
          <path class="cls-14" d="M250,21.39c-34.03,0-62.33,24.99-67.53,57.58,.35-.22,.7-.45,1.06-.67,5.45-31.79,33.13-55.98,66.47-55.98,28.66,0,53.13,17.88,62.91,43.09l1.04,.14c-9.81-25.78-34.76-44.16-63.94-44.16Z"/>
          <path class="cls-8" d="M250,21.39c-34.03,0-62.33,24.99-67.53,57.58,.35-.22,.7-.45,1.06-.67,5.45-31.79,33.13-55.98,66.47-55.98,28.66,0,53.13,17.88,62.91,43.09l1.04,.14c-9.81-25.78-34.76-44.16-63.94-44.16Z"/>
          <path class="cls-17" d="M325.69,55.1l-7.8-13.51-9.35,4.04c-4.1-5.43-8.94-10.27-14.37-14.37l4.04-9.35-13.51-7.8-6.06,8.15c-6.16-2.61-12.76-4.39-19.64-5.23l-1.18-10.12h-15.6l-1.18,10.12c-6.89,.84-13.48,2.62-19.64,5.23l-6.06-8.15-13.51,7.8,4.04,9.35c-5.43,4.1-10.27,8.94-14.37,14.37l-9.35-4.04-7.8,13.51,8.15,6.06c-2.61,6.15-4.39,12.74-5.23,19.62,.31,.01,.61,.02,.93,.04,.83-6.69,2.56-13.19,5.15-19.29l.28-.67-.58-.43-7.49-5.57,6.98-12.08,8.59,3.71,.67,.29,.44-.58c4.05-5.36,8.83-10.14,14.19-14.19l.58-.44-.29-.67-3.71-8.59,12.08-6.98,5.57,7.49,.43,.58,.67-.28c6.14-2.61,12.66-4.34,19.39-5.17l.72-.09,.08-.72,1.08-9.31h13.95l1.08,9.31,.08,.72,.72,.09c6.73,.82,13.26,2.56,19.4,5.17l.67,.28,.43-.58,5.57-7.49,12.08,6.98-3.71,8.59-.29,.67,.58,.44c5.36,4.05,10.14,8.83,14.19,14.19l.44,.58,.67-.29,8.59-3.71,6.98,12.08-7.49,5.57-.58,.43,.28,.67c.64,1.51,1.23,3.05,1.77,4.61,.34,.04,.68,.09,1.02,.13-.58-1.73-1.22-3.43-1.93-5.1l8.15-6.06Z"/>
          <path class="cls-23" d="M325.69,55.1l-7.8-13.51-9.35,4.04c-4.1-5.43-8.94-10.27-14.37-14.37l4.04-9.35-13.51-7.8-6.06,8.15c-6.16-2.61-12.76-4.39-19.64-5.23l-1.18-10.12h-15.6l-1.18,10.12c-6.89,.84-13.48,2.62-19.64,5.23l-6.06-8.15-13.51,7.8,4.04,9.35c-5.43,4.1-10.27,8.94-14.37,14.37l-9.35-4.04-7.8,13.51,8.15,6.06c-2.61,6.15-4.39,12.74-5.23,19.62,.31,.01,.61,.02,.93,.04,.83-6.69,2.56-13.19,5.15-19.29l.28-.67-.58-.43-7.49-5.57,6.98-12.08,8.59,3.71,.67,.29,.44-.58c4.05-5.36,8.83-10.14,14.19-14.19l.58-.44-.29-.67-3.71-8.59,12.08-6.98,5.57,7.49,.43,.58,.67-.28c6.14-2.61,12.66-4.34,19.39-5.17l.72-.09,.08-.72,1.08-9.31h13.95l1.08,9.31,.08,.72,.72,.09c6.73,.82,13.26,2.56,19.4,5.17l.67,.28,.43-.58,5.57-7.49,12.08,6.98-3.71,8.59-.29,.67,.58,.44c5.36,4.05,10.14,8.83,14.19,14.19l.44,.58,.67-.29,8.59-3.71,6.98,12.08-7.49,5.57-.58,.43,.28,.67c.64,1.51,1.23,3.05,1.77,4.61,.34,.04,.68,.09,1.02,.13-.58-1.73-1.22-3.43-1.93-5.1l8.15-6.06Z"/>
          <path class="cls-18" d="M250,27.72c-29,0-53.41,20-60.19,46.92,1.39-.75,2.85-1.49,4.35-2.22,7.41-23.79,29.64-41.11,55.84-41.11,22.98,0,42.89,13.33,52.44,32.65l4.24,.58c-9.69-21.68-31.44-36.82-56.68-36.82Z"/>
          <path class="cls-12" d="M250,31.76c-25.84,0-47.79,16.99-55.27,40.38,.19-.09,.37-.19,.57-.28,7.55-23,29.21-39.65,54.7-39.65,22.4,0,41.85,12.87,51.36,31.6l.54,.07c-9.53-19.03-29.21-32.12-51.9-32.12Z"/>
          <path class="cls-12" d="M250,26.82c-29.76,0-54.68,20.66-61.25,48.41,.18-.1,.36-.2,.54-.3,6.68-27.32,31.36-47.66,60.72-47.66,25.52,0,47.5,15.38,57.21,37.35l.55,.08c-9.7-22.28-31.9-37.87-57.75-37.87Z"/>
          <path class="cls-12" d="M250,31.76c22.69,0,42.37,13.1,51.9,32.12l.54,.07c-9.55-19.32-29.47-32.65-52.44-32.65-26.2,0-48.43,17.32-55.84,41.11,.19-.09,.38-.19,.57-.28,7.49-23.39,29.43-40.38,55.27-40.38Z"/>
          <path class="cls-12" d="M250,27.72c25.24,0,46.99,15.15,56.68,36.82l.53,.07c-9.7-21.97-31.69-37.35-57.21-37.35-29.35,0-54.03,20.34-60.72,47.66,.18-.1,.35-.19,.53-.29,6.78-26.93,31.19-46.92,60.19-46.92Z"/>
        </g>
        <g>
          <g>
            <path class="cls-11" d="M97.3,112.97c2.41-2.37,5.08-4.67,8.08-6.97,3.93-3.04,8.25-5.85,12.85-8.34,4.94-2.65,9.56-4.66,14.13-6.15,1.87-.7,3.83-1.2,5.73-1.69,.58-.15,1.16-.29,1.73-.45,2.44-.5,5.04-1.02,7.64-1.37,5.82-.82,12.12-1.21,19.26-1.21,3.45,0,7.2,.09,11.45,.28,4.09,.19,8.22,.45,12.21,.7,5.94,.37,12.08,.75,18.11,.92,4.37,.2,8.94,.31,13.57,.31,17.12,0,33.99-1.41,46.78-2.64,17.97-1.69,36.28-3.69,55.81-6.08-16.72,3.92-34.89,7.18-55.37,9.96-10.65,1.48-20.58,2.53-30.37,3.21-6.1,.39-12.49,.59-18.98,.59-3.78,0-7.7-.07-11.64-.2-7.13-.29-14.35-.81-21.32-1.31-3.03-.22-6.06-.43-9.07-.63-4.91-.36-9.97-.58-15.04-.63-5.76,0-10.51,.2-14.97,.61-2.42,.22-4.76,.58-7.36,.99-.66,.15-1.31,.28-1.95,.41-1.75,.37-3.56,.74-5.31,1.27-4.34,1.12-8.94,2.8-14.05,5.12-4.33,1.92-8.67,4.27-13.25,7.18-3.21,2.05-6.08,4.07-8.67,6.12Z"/>
            <path class="cls-12" d="M319.7,81.14c-15.35,3.42-31.96,6.33-50.45,8.84-10.65,1.48-20.58,2.53-30.34,3.21-6.1,.39-12.49,.58-18.97,.58-3.78,0-7.69-.07-11.62-.2-7.13-.29-14.34-.81-21.31-1.3-3.03-.22-6.06-.43-9.07-.63-4.92-.36-9.99-.58-15.07-.64-5.75,0-10.51,.2-14.99,.61-2.43,.22-4.78,.58-7.41,1-.65,.14-1.3,.28-1.94,.41-1.75,.37-3.56,.74-5.3,1.27-4.37,1.13-8.98,2.81-14.1,5.14-4.35,1.93-8.7,4.28-13.29,7.2-1.65,1.05-3.21,2.1-4.69,3.15,1.38-1.2,2.84-2.39,4.39-3.57,3.91-3.03,8.23-5.83,12.81-8.32,4.92-2.64,9.53-4.64,14.11-6.14,1.84-.69,3.8-1.19,5.69-1.67,.58-.15,1.16-.3,1.72-.44,2.44-.5,5.04-1.02,7.64-1.37,5.81-.81,12.1-1.21,19.23-1.21,3.44,0,7.19,.09,11.44,.28,4.08,.19,8.2,.45,12.18,.69,5.95,.37,12.1,.75,18.13,.93,4.38,.2,8.95,.31,13.59,.31,17.13,0,34.01-1.41,46.8-2.64,16.45-1.55,33.16-3.35,50.83-5.48m9.52-1.69c-20.14,2.51-40.27,4.75-60.41,6.65-15.64,1.5-31.18,2.64-46.75,2.64-4.52,0-9.04-.1-13.57-.31-10.06-.3-20.12-1.14-30.31-1.62-3.8-.17-7.62-.28-11.46-.28-6.43,0-12.9,.32-19.3,1.22-2.55,.34-5.13,.85-7.67,1.38-2.51,.67-5.05,1.22-7.48,2.14-4.93,1.6-9.65,3.74-14.18,6.17-4.52,2.45-8.84,5.23-12.88,8.36-4.05,3.11-7.87,6.52-11.27,10.3,3.81-3.35,7.92-6.31,12.16-9.02,4.25-2.7,8.65-5.14,13.22-7.17,4.55-2.07,9.21-3.86,14.02-5.11,2.38-.72,4.82-1.15,7.23-1.68,2.44-.39,4.86-.77,7.34-.99,4.96-.45,9.95-.6,14.94-.6,5,.06,10,.26,15.03,.64,10.05,.66,20.2,1.52,30.4,1.94,3.88,.13,7.76,.2,11.64,.2,6.34,0,12.68-.18,19-.59,10.21-.71,20.32-1.82,30.38-3.21,20.14-2.73,40.18-6.21,59.91-11.04h0Z"/>
          </g>
          <path class="cls-2" d="M239.23,96.65c13.11-1.1,26.16-2.4,39.15-4.09,6.5-.81,12.98-1.74,19.42-2.82,6.46-1,12.86-2.27,19.23-3.63l9.57-2.18,4.85-1.11c1.62-.37,3.26-.6,4.89-.91,6.52-1.22,13.13-2,19.76-2.43l4.98-.25,4.98-.02c3.32,.02,6.64,.16,9.95,.47,6.6,.6,13.23,1.64,19.43,3.96-6.5-1.1-13.04-1.28-19.54-1.25-6.51,.11-13,.47-19.45,1.22-6.45,.76-12.89,1.64-19.27,2.89-6.4,1.17-12.68,2.64-19.22,4.04-13,2.56-26.11,4.2-39.26,5.2-13.15,.94-26.32,1.37-39.47,.92Z"/>
          <path class="cls-4" d="M303.52,97.77c8.92-2.21,17.82-4.27,26.73-6.25,4.44-1.04,8.94-1.97,13.46-2.84,4.53-.83,9.11-1.48,13.71-2.01,9.2-.88,18.61-1.21,27.9,.65,4.61,.95,9.23,2.51,13.2,5.26,3.95,2.73,6.9,7.01,7.53,11.6-1.68-4.31-4.87-7.66-8.75-9.63-3.86-2.05-8.21-3.02-12.58-3.6-4.4-.5-8.86-.69-13.34-.53-4.48,.1-8.97,.43-13.46,.93-9,.87-17.91,2.42-27,3.75-9.07,1.3-18.2,2.36-27.4,2.65Z"/>
          <path class="cls-19" d="M255.25,72.03c-16.51-1.6-43.66,1.83-65.09,12.86,0,0,32.96,2.48,69.28-1.7,0,0,12.55-9.53-4.19-11.15Z"/>
          <path class="cls-3" d="M183.87,85.24c6.17-4.22,12.9-7.61,19.78-10.59,6.92-2.92,14.08-5.33,21.44-7.04,7.34-1.78,14.89-2.78,22.48-3.07,3.8-.13,7.61-.06,11.41,.28,3.75,.33,7.45,.68,11.17,1.07,7.43,.8,14.83,1.77,22.22,2.74l22.1,3.05c14.72,1.95,29.52,3.19,44.41,4.3-14.9,.9-29.9,.7-44.8-.59-14.91-1.23-29.66-3.27-44.43-4.82-3.68-.43-7.4-.82-11.06-1.17-3.62-.36-7.27-.42-10.91-.44-7.3,.05-14.6,.87-21.83,2.2-14.44,2.75-28.59,7.51-41.96,14.1Z"/>
          <g>
            <path class="cls-6" d="M116.22,104.79c2.23-1.35,4.63-2.36,6.96-3.26,3.19-1.18,6.73-2.16,10.81-3,6.56-1.32,13.65-2.03,22.32-2.23h.9c6.32,0,13.33,.31,21.42,.95l22.14,1.51c5.02,.35,10.12,.63,15.06,.9,2.36,.13,4.72,.26,7.08,.39,7.45,.33,14.75,.64,22.14,.79,2.68,.06,5.44,.09,8.19,.09,9.98,0,20.39-.38,31.72-1.18-12.79,2.34-26.18,3.71-39.88,4.07-3.57,.1-7.3,.16-11.07,.16-9.94,0-20.58-.35-33.48-1.1-7.45-.38-14.95-.99-22.2-1.58-1.89-.15-3.78-.3-5.65-.46-5.36-.45-10.91-.91-16.39-1.06-1.94-.06-3.86-.09-5.71-.09-5.8,0-11.12,.28-16.26,.84-3.39,.45-7.22,.95-10.85,1.91-2.39,.61-4.88,1.32-7.24,2.33Z"/>
            <path class="cls-12" d="M157.22,96.57c6.31,0,13.31,.31,21.39,.95l22.14,1.51c5.02,.35,10.13,.63,15.07,.9,2.36,.13,4.72,.26,7.08,.39,7.46,.33,14.78,.65,22.14,.79,2.68,.06,5.43,.09,8.18,.09,8.53,0,17.37-.28,26.82-.86-11.29,1.83-23.02,2.91-34.99,3.23-3.57,.1-7.29,.16-11.06,.16-9.93,0-20.56-.35-33.47-1.1-7.46-.38-14.95-.99-22.19-1.58-1.89-.15-3.76-.3-5.63-.46-5.38-.45-10.93-.91-16.42-1.06-1.94-.06-3.87-.09-5.71-.09-5.81,0-11.14,.28-16.3,.85-3.39,.44-7.22,.95-10.87,1.92-1.18,.3-2.39,.63-3.59,1,1.15-.52,2.31-.99,3.45-1.43,3.18-1.18,6.7-2.16,10.77-2.99,6.55-1.31,13.63-2.02,22.27-2.22h.92m0-.52c-.31,0-.61,0-.92,0-7.49,.18-15,.76-22.37,2.23-3.68,.75-7.32,1.71-10.85,3.01-3.49,1.34-6.98,2.9-9.85,5.3,3.18-1.91,6.75-2.98,10.29-3.88,3.54-.94,7.19-1.43,10.81-1.91,5.39-.6,10.81-.84,16.24-.84,1.9,0,3.8,.03,5.7,.09,7.34,.2,14.6,.95,22.03,1.52,7.39,.6,14.79,1.2,22.21,1.58,11.14,.65,22.31,1.1,33.49,1.1,3.69,0,7.38-.05,11.08-.16,14.88-.4,29.75-1.97,44.3-4.92-12.07,.94-24.11,1.5-36.14,1.5-2.72,0-5.45-.03-8.17-.09-7.38-.15-14.76-.46-22.13-.79-7.38-.43-14.76-.78-22.13-1.29l-22.14-1.51c-7.04-.56-14.25-.95-21.43-.95h0Z"/>
          </g>
          <g>
            <path class="cls-13" d="M136.22,113.98c1.76-3.21,4.6-6.04,8.13-8.06,3.78-2.21,8.25-3.4,12.93-3.45,4.7,0,9.18,1.15,12.96,3.3,3.56,1.98,6.43,4.77,8.23,7.97-2.68-2.57-5.77-4.58-9.19-6.01-3.77-1.54-7.69-2.32-11.68-2.32h-.44c-4.01,0-7.99,.82-11.84,2.44-3.41,1.47-6.47,3.52-9.11,6.12Z"/>
            <path class="cls-12" d="M157.28,102.73c4.66,0,9.09,1.14,12.84,3.27,2.91,1.62,5.36,3.79,7.12,6.28-2.36-1.99-4.99-3.6-7.86-4.8-3.8-1.55-7.76-2.34-11.78-2.34h-.31s-.12,0-.12,0c-4.04,0-8.06,.83-11.95,2.47-2.85,1.23-5.45,2.86-7.78,4.88,1.73-2.5,4.15-4.7,7.04-6.35,3.74-2.18,8.16-3.36,12.8-3.41m0-.52c-4.56,.05-9.13,1.19-13.06,3.48-3.92,2.25-7.22,5.63-8.96,9.66,2.94-3.22,6.41-5.64,10.17-7.26,3.73-1.57,7.73-2.42,11.74-2.42,.04,0,.08,0,.12,0,.1,0,.21,0,.31,0,3.95,0,7.89,.79,11.58,2.3,3.78,1.58,7.28,3.94,10.27,7.12-1.79-4.01-5.13-7.35-9.08-9.55-3.95-2.25-8.54-3.33-13.09-3.33h0Z"/>
          </g>
          <path class="cls-5" d="M330.39,112.18c1.87-5.04,5.55-9.49,10.2-12.56,4.64-3.12,10.28-4.79,15.92-4.84,5.64-.01,11.31,1.56,15.99,4.63,4.69,3.01,8.43,7.41,10.36,12.42-3.41-4.13-7.45-7.41-11.95-9.64-4.5-2.2-9.43-3.37-14.37-3.3-4.94-.03-9.85,1.23-14.33,3.48-4.48,2.29-8.47,5.63-11.82,9.8Z"/>
        </g>
      </g>
    </g>
    <g id="TEXTS">
      <g>
        <g>
          <path class="cls-7" d="M246.73,154c1.56,.96,3.84,1.76,6.24,1.76,3.56,0,5.64-1.88,5.64-4.6,0-2.52-1.44-3.96-5.08-5.36-4.4-1.56-7.12-3.84-7.12-7.64,0-4.2,3.48-7.32,8.72-7.32,2.76,0,4.76,.64,5.96,1.32l-.96,2.84c-.88-.48-2.68-1.28-5.12-1.28-3.68,0-5.08,2.2-5.08,4.04,0,2.52,1.64,3.76,5.36,5.2,4.56,1.76,6.88,3.96,6.88,7.92,0,4.16-3.08,7.75-9.44,7.75-2.6,0-5.44-.76-6.88-1.72l.88-2.92Z"/>
          <path class="cls-7" d="M281.87,145.6h-10.47v9.71h11.67v2.92h-15.15v-26.95h14.55v2.92h-11.07v8.51h10.47v2.88Z"/>
          <path class="cls-7" d="M288.59,131.65c1.76-.36,4.28-.56,6.68-.56,3.72,0,6.12,.68,7.8,2.2,1.36,1.2,2.12,3.04,2.12,5.12,0,3.56-2.24,5.92-5.08,6.88v.12c2.08,.72,3.32,2.64,3.96,5.44,.88,3.76,1.52,6.36,2.08,7.4h-3.6c-.44-.76-1.04-3.08-1.8-6.44-.8-3.72-2.24-5.12-5.4-5.24h-3.28v11.67h-3.48v-26.58Zm3.48,12.27h3.56c3.72,0,6.08-2.04,6.08-5.12,0-3.48-2.52-5-6.2-5.04-1.68,0-2.88,.16-3.44,.32v9.83Z"/>
          <path class="cls-7" d="M317.65,158.23l-8.79-26.95h3.76l4.2,13.27c1.16,3.64,2.16,6.92,2.88,10.08h.08c.76-3.12,1.88-6.52,3.08-10.04l4.56-13.31h3.72l-9.63,26.95h-3.84Z"/>
          <path class="cls-7" d="M338.52,131.29v26.95h-3.48v-26.95h3.48Z"/>
          <path class="cls-7" d="M364.43,157.35c-1.28,.64-3.84,1.28-7.12,1.28-7.6,0-13.31-4.8-13.31-13.63s5.72-14.15,14.07-14.15c3.36,0,5.48,.72,6.4,1.2l-.84,2.84c-1.32-.64-3.2-1.12-5.44-1.12-6.32,0-10.51,4.04-10.51,11.11,0,6.6,3.8,10.83,10.35,10.83,2.12,0,4.28-.44,5.68-1.12l.72,2.76Z"/>
          <path class="cls-7" d="M383.74,145.6h-10.47v9.71h11.67v2.92h-15.15v-26.95h14.55v2.92h-11.07v8.51h10.47v2.88Z"/>
        </g>
        <g>
          <path class="cls-1" d="M255.12,131.35c2.66,0,4.4,.6,5.35,1.06l-.64,1.89c-1.13-.54-2.78-1.07-4.83-1.07-3.85,0-5.58,2.28-5.58,4.54,0,2.91,1.99,4.24,5.68,5.66,4.66,1.8,6.56,3.96,6.56,7.45,0,4.41-3.51,7.25-8.94,7.25-2.24,0-4.8-.6-6.29-1.44l.59-1.95c1.79,.97,3.92,1.51,5.94,1.51,3.73,0,6.14-2,6.14-5.1,0-2.7-1.51-4.33-5.41-5.83-4.63-1.64-6.78-3.92-6.78-7.16,0-4.01,3.38-6.82,8.22-6.82m0-.5c-5.24,0-8.72,3.12-8.72,7.32,0,3.8,2.72,6.08,7.12,7.64,3.64,1.4,5.08,2.84,5.08,5.36,0,2.72-2.08,4.6-5.64,4.6-2.4,0-4.68-.8-6.24-1.76l-.88,2.92c1.44,.96,4.28,1.72,6.88,1.72,6.36,0,9.44-3.6,9.44-7.75s-2.32-6.16-6.88-7.92c-3.72-1.44-5.36-2.68-5.36-5.2,0-1.84,1.4-4.04,5.08-4.04,2.44,0,4.24,.8,5.12,1.28l.96-2.84c-1.2-.68-3.2-1.32-5.96-1.32h0Z"/>
          <path class="cls-1" d="M281.97,131.79v1.92h-11.07v9.51h10.47v1.88h-10.47v10.71h11.67v1.92h-14.15v-25.95h13.55m.5-.5h-14.55v26.95h15.15v-2.92h-11.67v-9.71h10.47v-2.88h-10.47v-8.51h11.07v-2.92h0Z"/>
          <path class="cls-1" d="M295.26,131.59c3.58,0,5.88,.64,7.46,2.07,1.26,1.11,1.95,2.79,1.95,4.74,0,3.01-1.77,5.4-4.74,6.4l-.34,.11v.83l.34,.12c1.81,.63,3,2.29,3.63,5.08,.71,3.05,1.29,5.42,1.8,6.78h-2.52c-.46-1.06-1.1-3.75-1.62-6.04-.84-3.92-2.49-5.5-5.89-5.63h-3.78v11.67h-2.48v-25.67c1.66-.3,3.93-.47,6.18-.47m-3.7,12.83h4.06c3.99,0,6.58-2.2,6.58-5.62s-2.38-5.49-6.7-5.54c-1.5,0-2.83,.13-3.58,.34l-.36,.1v10.71m3.7-13.33c-2.4,0-4.92,.2-6.68,.56v26.58h3.48v-11.67h3.28c3.16,.12,4.6,1.52,5.4,5.24,.76,3.36,1.36,5.68,1.8,6.44h3.6c-.56-1.04-1.2-3.64-2.08-7.4-.64-2.8-1.88-4.72-3.96-5.44v-.12c2.84-.96,5.08-3.32,5.08-6.88,0-2.08-.76-3.92-2.12-5.12-1.68-1.52-4.08-2.2-7.8-2.2h0Zm-3.2,12.83v-9.83c.56-.16,1.76-.32,3.44-.32,3.68,.04,6.2,1.56,6.2,5.04,0,3.08-2.36,5.12-6.08,5.12h-3.56Z"/>
          <path class="cls-1" d="M330.42,131.79l-9.28,25.95h-3.12l-8.47-25.95h2.7l4.09,12.92c1.22,3.84,2.18,7.02,2.87,10.03l.09,.39h.87l.09-.38c.78-3.22,1.99-6.85,3.07-9.99l4.44-12.97h2.65m.71-.5h-3.72l-4.56,13.31c-1.2,3.52-2.32,6.92-3.08,10.04h-.08c-.72-3.16-1.72-6.44-2.88-10.08l-4.2-13.27h-3.76l8.79,26.95h3.84l9.63-26.95h0Z"/>
          <path class="cls-1" d="M338.02,131.79v25.95h-2.48v-25.95h2.48m.5-.5h-3.48v26.95h3.48v-26.95h0Z"/>
          <path class="cls-1" d="M358.07,131.35c3.08,0,4.96,.61,5.8,.97l-.56,1.88c-1.47-.6-3.26-.93-5.12-.93-6.79,0-11.01,4.45-11.01,11.61s4.16,11.33,10.85,11.33c1.9,0,3.88-.35,5.34-.93l.47,1.78c-1.25,.52-3.57,1.06-6.53,1.06-7.9,0-12.81-5.03-12.81-13.13s5.45-13.65,13.57-13.65m0-.5c-8.36,0-14.07,5.72-14.07,14.15s5.72,13.63,13.31,13.63c3.28,0,5.84-.64,7.12-1.28l-.72-2.76c-1.4,.68-3.56,1.12-5.68,1.12-6.56,0-10.35-4.24-10.35-10.83,0-7.08,4.2-11.11,10.51-11.11,2.24,0,4.12,.48,5.44,1.12l.84-2.84c-.92-.48-3.04-1.2-6.4-1.2h0Z"/>
          <path class="cls-1" d="M383.84,131.79v1.92h-11.07v9.51h10.47v1.88h-10.47v10.71h11.67v1.92h-14.15v-25.95h13.55m.5-.5h-14.55v26.95h15.15v-2.92h-11.67v-9.71h10.47v-2.88h-10.47v-8.51h11.07v-2.92h0Z"/>
        </g>
      </g>
      <g>
        <g>
          <path class="cls-21" d="M114.22,149.76l-2.8,8.48h-3.6l9.15-26.95h4.2l9.19,26.95h-3.72l-2.88-8.48h-9.55Zm8.83-2.72l-2.64-7.76c-.6-1.76-1-3.36-1.4-4.92h-.08c-.4,1.6-.84,3.24-1.36,4.88l-2.64,7.8h8.12Z"/>
          <path class="cls-21" d="M137.69,131.29v15.95c0,6.04,2.68,8.6,6.28,8.6,4,0,6.56-2.64,6.56-8.6v-15.95h3.52v15.71c0,8.28-4.36,11.67-10.19,11.67-5.52,0-9.67-3.16-9.67-11.51v-15.87h3.52Z"/>
          <path class="cls-21" d="M166.19,134.25h-8.2v-2.96h19.95v2.96h-8.24v23.99h-3.52v-23.99Z"/>
          <path class="cls-21" d="M203.9,144.48c0,9.27-5.64,14.19-12.51,14.19s-12.11-5.52-12.11-13.67c0-8.56,5.32-14.15,12.51-14.15s12.11,5.64,12.11,13.63Zm-20.91,.44c0,5.76,3.12,10.91,8.6,10.91s8.64-5.08,8.64-11.19c0-5.36-2.8-10.95-8.6-10.95s-8.64,5.32-8.64,11.23Z"/>
        </g>
        <g>
          <path class="cls-12" d="M120.82,131.79l8.85,25.95h-2.66l-2.76-8.14-.12-.34h-10.27l-.11,.34-2.69,8.13h-2.54l8.82-25.95h3.48m-6.58,15.75h9.51l-.22-.66-2.64-7.76c-.56-1.63-.94-3.14-1.31-4.59l-.07-.29-.1-.38h-.86l-.09,.38c-.47,1.9-.9,3.44-1.35,4.84l-2.64,7.8-.22,.66m6.93-16.25h-4.2l-9.15,26.95h3.6l2.8-8.48h9.55l2.88,8.48h3.72l-9.19-26.95h0Zm-6.24,15.75l2.64-7.8c.52-1.64,.96-3.28,1.36-4.88h.08c.4,1.56,.8,3.16,1.4,4.92l2.64,7.76h-8.12Z"/>
          <path class="cls-12" d="M153.54,131.79v15.21c0,7.2-3.44,11.17-9.69,11.17s-9.17-3.81-9.17-11.01v-15.37h2.52v15.45c0,5.78,2.47,9.1,6.78,9.1,4.55,0,7.06-3.23,7.06-9.1v-15.45h2.52m.5-.5h-3.52v15.95c0,5.96-2.56,8.6-6.56,8.6-3.6,0-6.28-2.56-6.28-8.6v-15.95h-3.52v15.87c0,8.36,4.16,11.51,9.67,11.51,5.84,0,10.19-3.4,10.19-11.67v-15.71h0Z"/>
          <path class="cls-12" d="M177.45,131.79v1.96h-8.24v23.99h-2.52v-23.99h-8.2v-1.96h18.95m.5-.5h-19.95v2.96h8.2v23.99h3.52v-23.99h8.24v-2.96h0Z"/>
          <path class="cls-12" d="M191.78,131.35c6.95,0,11.61,5.28,11.61,13.13,0,8.32-4.72,13.69-12.01,13.69-6.84,0-11.61-5.42-11.61-13.17s4.94-13.65,12.01-13.65m-.2,24.99c5.38,0,9.14-4.81,9.14-11.69,0-5.52-2.85-11.45-9.1-11.45s-9.14,5.89-9.14,11.73,3.12,11.41,9.1,11.41m.2-25.49c-7.2,0-12.51,5.6-12.51,14.15s5,13.67,12.11,13.67,12.51-4.92,12.51-14.19c0-8-4.76-13.63-12.11-13.63h0Zm-.2,24.99c-5.48,0-8.6-5.16-8.6-10.91s2.88-11.23,8.64-11.23,8.6,5.6,8.6,10.95c0,6.12-3.12,11.19-8.64,11.19h0Z"/>
        </g>
      </g>
      <text class="cls-15" transform="translate(155.38 188.27)"><tspan class="cls-10" x="0" y="0">y</tspan><tspan x="10.32" y="0">our tagline he</tspan><tspan class="cls-10" x="140.29" y="0">r</tspan><tspan x="147.39" y="0">e</tspan></text>
    </g>
  </g>
</svg>